<svg width="170" height="74" viewBox="0 0 170 74" fill="none" xmlns="http://www.w3.org/2000/svg">
<g clip-path="url(#clip0_2083_1353)">
<path d="M56.0617 41.1734C57.6763 36.2811 58.5443 31.0354 58.5443 25.5399C58.5443 16.3829 56.0496 7.67052 51.6974 0.00610352H33.0507L56.0678 41.1795L56.0617 41.1734Z" fill="white"/>
<path d="M57.9191 44.4938L72.153 69.9606V10.2233C72.153 4.59987 67.5703 0 61.9738 0H54.9691C59.0845 7.73753 61.4214 16.4316 61.4214 25.5338C61.4214 32.1686 60.2196 38.5597 57.9191 44.4877V44.4938Z" fill="white"/>
<path d="M56.4805 47.8264C53.4698 54.1809 49.142 59.9262 43.6123 64.7759C40.2314 67.7368 36.4923 70.2896 32.4861 72.4159H70.2289L56.4805 47.8203V47.8264Z" fill="white"/>
<path d="M29.7426 0H20.1035C27.8366 9.19364 32.3951 20.806 32.3951 33.5821C32.3951 48.4357 26.2099 62.1561 14.9805 72.221C14.9016 72.2941 14.8166 72.355 14.7377 72.4281H25.8699C39.2238 67.024 49.5123 57.1785 54.7384 44.7192L29.7426 0Z" fill="white"/>
<path d="M27.4481 37.463C27.4481 45.6392 25.3358 53.6387 21.36 60.7304C26.5983 52.9076 29.518 43.6226 29.518 33.5821C29.5119 20.6415 24.5528 8.96213 16.237 0H6.6344C18.9138 8.164 27.1082 21.7016 27.4421 37.463H27.4481Z" fill="white"/>
<path d="M9.17164 72.3185C19.0777 63.8986 24.5649 50.7874 24.5649 37.53C24.2189 21.1289 14.9684 7.22575 1.12293 0H0V62.1987C0 67.353 4.16396 71.6361 9.17164 72.3124V72.3185Z" fill="white"/>
<path d="M169.97 0H150.649V6.55557H162.103V27.5687C162.103 34.7701 159.845 36.5674 155.372 36.5674H145.818V43.6165H155.687C164.191 43.6165 169.964 39.6685 169.964 27.8185V0H169.97Z" fill="white"/>
<path d="M132.81 6.56167H145.817V0H112.014V6.56167H124.955V43.6226H132.81V6.56167Z" fill="white"/>
<path d="M95.9044 10.8874C95.9044 8.71233 97.1669 6.54948 101.823 6.54948C105.853 6.54948 107.182 6.54948 107.182 6.54948V0H101.98C92.9483 0 87.9103 4.58159 87.9103 11.6489C87.9103 17.8268 92.4506 21.5798 99.6131 24.1265C105.046 26.1004 107.225 28.0135 107.225 31.2608C107.225 34.5082 104.845 36.5674 100.244 36.5674H87.8739V43.6226H98.9151C109.974 43.6226 115.219 37.6336 115.219 30.6942C115.219 24.5164 111.638 20.7573 104.159 17.9608C98.4052 15.7309 95.9165 14.2017 95.9165 10.8935L95.9044 10.8874Z" fill="white"/>
<path d="M89.4098 67.8161H87.868V66.9631H91.8742V67.8161H90.3931V72.4221H89.4098V67.8161Z" fill="white"/>
<path d="M154.388 67.8161H152.895V66.9631H156.859V67.8161H155.372V72.4221H154.388V67.8161Z" fill="white"/>
<path d="M92.815 66.957H94.5571C95.1398 66.957 95.4069 66.9997 95.6436 67.1093C96.1838 67.3591 96.5237 67.877 96.5237 68.602C96.5237 69.26 96.1838 69.8693 95.6132 70.0947V70.113C95.6132 70.113 95.6861 70.1861 95.7953 70.381L96.9061 72.422H95.8135L94.7392 70.381H93.7983V72.422H92.815V66.9631V66.957ZM94.6785 69.522C95.2005 69.522 95.5283 69.2052 95.5283 68.6629C95.5283 68.1207 95.3097 67.8161 94.5389 67.8161H93.7923V69.522H94.6724H94.6785Z" fill="white"/>
<path d="M97.8591 66.957H98.8425V72.4159H97.8591V66.957Z" fill="white"/>
<path d="M100.281 66.957H102.211C103.182 66.957 103.88 67.4627 103.88 68.3644C103.88 68.8701 103.638 69.3087 103.225 69.5342V69.5525C103.82 69.7291 104.099 70.2836 104.099 70.838C104.099 71.9285 103.231 72.422 102.236 72.422H100.281V66.9631V66.957ZM102.211 69.1869C102.636 69.1869 102.879 68.8823 102.879 68.4863C102.879 68.0902 102.648 67.81 102.193 67.81H101.258V69.1869H102.211ZM102.308 71.5691C102.812 71.5691 103.091 71.2401 103.091 70.7771C103.091 70.314 102.8 69.9911 102.308 69.9911H101.258V71.5691H102.308Z" fill="white"/>
<path d="M105.143 66.957H106.126V70.4541C106.126 71.1853 106.418 71.5995 107.14 71.5995C107.862 71.5995 108.16 71.1853 108.16 70.4481V66.957H109.143V70.4541C109.143 71.6787 108.451 72.5073 107.146 72.5073C105.841 72.5073 105.143 71.6787 105.143 70.4541V66.957Z" fill="white"/>
<path d="M110.43 66.957H111.413L113.459 70.113C113.665 70.4298 113.908 70.9598 113.908 70.9598H113.926C113.926 70.9598 113.872 70.4359 113.872 70.113V66.957H114.843V72.4159H113.872L111.826 69.2722C111.62 68.9554 111.377 68.4253 111.377 68.4253H111.365C111.365 68.4253 111.419 68.9493 111.419 69.2722V72.4159H110.436V66.957H110.43Z" fill="white"/>
<path d="M119.025 71.1304H117.046L116.633 72.4221H115.62L117.52 66.9631H118.545L120.451 72.4221H119.438L119.019 71.1304H119.025ZM118.036 67.9075C118.036 67.9075 117.914 68.4436 117.805 68.7543L117.283 70.3262H118.782L118.266 68.7543C118.169 68.4436 118.054 67.9075 118.054 67.9075H118.036Z" fill="white"/>
<path d="M168.549 71.1304H166.571L166.158 72.4221H165.144L167.05 66.9631H168.076L169.982 72.4221H168.968L168.549 71.1304ZM167.56 67.9075C167.56 67.9075 167.439 68.4436 167.329 68.7543L166.807 70.3262H168.307L167.791 68.7543C167.693 68.4436 167.578 67.9075 167.578 67.9075H167.56Z" fill="white"/>
<path d="M121.234 66.957H122.218V71.563H124.451V72.4159H121.234V66.957Z" fill="white"/>
<path d="M127.571 66.957H129.241C130.91 66.957 131.996 67.9562 131.996 69.6804C131.996 71.4046 130.91 72.4159 129.241 72.4159H127.571V66.957ZM129.186 71.5691C130.285 71.5691 130.983 70.9172 130.983 69.6865C130.983 68.4558 130.266 67.8161 129.186 67.8161H128.549V71.5691H129.186Z" fill="white"/>
<path d="M132.967 66.957H136.203V67.81H133.951V69.2417H135.772V70.0947H133.951V71.563H136.324V72.4159H132.967V66.957Z" fill="white"/>
<path d="M139.074 70.4907H140.045V70.7466C140.045 71.3924 140.397 71.6056 140.761 71.6056C141.125 71.6056 141.453 71.3802 141.453 70.7892V67.81H140.694V66.957H142.437V70.8014C142.437 71.9956 141.587 72.5073 140.749 72.5073C139.911 72.5073 139.074 71.9773 139.074 70.8014V70.4846V70.4907Z" fill="white"/>
<path d="M143.699 66.957H144.682V70.4541C144.682 71.1853 144.974 71.5995 145.696 71.5995C146.418 71.5995 146.716 71.1853 146.716 70.4481V66.957H147.699V70.4541C147.699 71.6787 147.007 72.5073 145.702 72.5073C144.397 72.5073 143.699 71.6787 143.699 70.4541V66.957Z" fill="white"/>
<path d="M149.192 71.0026C149.192 71.0026 149.824 71.5996 150.582 71.5996C150.995 71.5996 151.365 71.3864 151.365 70.9416C151.365 69.9607 148.816 70.1313 148.816 68.4559C148.816 67.5481 149.593 66.8718 150.631 66.8718C151.566 66.8718 152.112 67.3714 152.112 67.3714L151.711 68.133C151.711 68.133 151.238 67.7857 150.625 67.7857C150.17 67.7857 149.811 68.0599 149.811 68.4437C149.811 69.4124 152.355 69.1748 152.355 70.9173C152.355 71.7885 151.699 72.5135 150.576 72.5135C149.374 72.5135 148.622 71.7093 148.622 71.7093L149.198 71.0026H149.192Z" fill="white"/>
<path d="M157.884 66.957H158.868V72.4159H157.884V66.957Z" fill="white"/>
<path d="M162.589 66.8657C163.906 66.8657 164.58 67.609 164.58 67.609L164.106 68.3523C164.106 68.3523 163.493 67.7735 162.631 67.7735C161.49 67.7735 160.889 68.6387 160.889 69.65C160.889 70.6614 161.514 71.6057 162.637 71.6057C163.572 71.6057 164.203 70.9173 164.203 70.9173L164.719 71.6301C164.719 71.6301 164.021 72.4526 162.734 72.5074L162.68 72.7572C162.989 72.7938 163.238 72.9826 163.238 73.3421C163.238 73.8478 162.862 74.0001 162.449 74.0001C162.188 74.0001 162.006 73.9209 162.006 73.9209V73.4883C162.006 73.4883 162.109 73.5127 162.279 73.5127C162.461 73.5127 162.613 73.4335 162.613 73.2751C162.613 73.1289 162.455 73.0679 162.249 73.0679C162.164 73.0679 162.091 73.0801 162.091 73.0801L162.249 72.4891C160.786 72.3368 159.875 71.161 159.875 69.6683C159.875 68.0842 160.992 66.8718 162.583 66.8718L162.589 66.8657Z" fill="white"/>
<path d="M152.464 49.7273C148.834 49.7273 146.176 52.4811 146.176 56.0087C146.176 59.5363 148.834 62.4485 152.464 62.4485C156.094 62.4485 158.752 59.6277 158.752 56.0087C158.752 52.3897 156.094 49.7273 152.464 49.7273ZM152.464 59.6947C150.667 59.6947 149.223 58.1106 149.223 56.0087C149.223 53.9068 150.667 52.475 152.464 52.475C154.261 52.475 155.705 53.9921 155.705 56.0087C155.705 58.0253 154.261 59.6947 152.464 59.6947Z" fill="white"/>
<path d="M89.6283 58.196L87.868 60.4624C87.868 60.4624 89.9561 62.4546 92.9789 62.4546C96.0017 62.4546 97.5071 60.6634 97.5071 58.592C97.5071 54.8816 91.6435 54.9425 91.6435 53.3768C91.6435 52.5908 92.5358 52.3471 93.1853 52.3471C94.7331 52.3471 95.9835 53.1026 95.9835 53.1026L97.24 50.7326C97.24 50.7326 95.7286 49.6055 93.1185 49.6055C90.5085 49.6055 88.5722 51.1164 88.5722 53.4133C88.5722 57.2394 94.3629 57.0445 94.3629 58.6651C94.3629 59.4145 93.6587 59.6521 93.0153 59.6521C91.3947 59.6521 89.6283 58.202 89.6283 58.202V58.196Z" fill="white"/>
<path d="M98.6603 57.7147C98.6603 60.4868 100.469 62.4486 103.595 62.4486C106.721 62.4486 108.494 60.4868 108.494 57.7147V49.9285H105.495V57.7147C105.495 59.0064 104.87 59.6948 103.583 59.6948C102.296 59.6948 101.665 59.0064 101.665 57.7147V49.9285H98.6664V57.7147H98.6603Z" fill="white"/>
<path d="M115.699 49.9285H110.393V62.2415H113.392V58.7566H115.693C118.078 58.7566 119.741 56.8069 119.741 54.3273C119.741 51.8476 118.078 49.9346 115.693 49.9346L115.699 49.9285ZM115.079 56.1733H113.392V52.5178H115.128C116.123 52.5178 116.688 53.3464 116.688 54.3273C116.688 55.3082 116.123 56.1733 115.073 56.1733H115.079Z" fill="white"/>
<path d="M123.972 59.6583V57.337H127.498V54.7538H123.972V52.5178H128.652V49.9285H120.973V62.2415H128.895V59.6583H123.972Z" fill="white"/>
<path d="M140.355 62.2415L138.048 57.9645C139.256 57.2395 140.003 55.8687 140.003 54.2115C140.003 51.7319 138.339 49.9285 135.954 49.9285H130.649V62.2415H133.647V58.5311H135.317L137.113 62.2415H140.349H140.355ZM133.647 52.5178H135.383C136.373 52.5178 136.943 53.2367 136.943 54.2176C136.943 55.1985 136.373 55.954 135.329 55.954H133.641V52.5239L133.647 52.5178Z" fill="white"/>
<path d="M170 62.2415L167.693 57.9645C168.901 57.2395 169.648 55.8687 169.648 54.2115C169.648 51.7319 167.985 49.9285 165.599 49.9285H160.3V62.2415H163.299V58.5311H164.968L166.765 62.2415H170ZM163.299 52.5178H165.035C166.03 52.5178 166.595 53.2367 166.595 54.2176C166.595 55.1985 166.03 55.954 164.98 55.954H163.293V52.5239L163.299 52.5178Z" fill="white"/>
<path d="M144.664 49.9346H141.666V62.2415H144.664V49.9346Z" fill="white"/>
</g>
<defs>
<clipPath id="clip0_2083_1353">
<rect width="170" height="74" fill="white"/>
</clipPath>
</defs>
</svg>
